<svg width="38" height="38" viewBox="0 0 38 38" fill="none" xmlns="http://www.w3.org/2000/svg">
<g clip-path="url(#clip0)">
<path d="M36.917 9.65167C36.6526 9.1925 36.2869 8.79192 35.8847 8.55917L21.926 0.5C21.1217 0.0360833 19.806 0.0360833 19.0016 0.5L5.03979 8.55917C4.23545 9.02308 3.57837 10.1631 3.57837 11.0925V27.2108C3.57837 27.6763 3.74304 28.1925 4.00745 28.6517C4.27187 29.1108 4.63762 29.5114 5.03979 29.7426L18.9985 37.8033C19.8028 38.2672 21.1185 38.2672 21.9229 37.8033L35.8815 29.7426C36.2837 29.5114 36.6495 29.1108 36.9139 28.6517C37.1783 28.1925 37.343 27.6763 37.343 27.2108V11.0925C37.3461 10.627 37.1815 10.1108 36.917 9.65167ZM20.4615 30.4076C14.2548 30.4076 9.20554 25.3583 9.20554 19.1517C9.20554 12.945 14.2548 7.89575 20.4615 7.89575C22.436 7.89934 24.375 8.42053 26.0853 9.40734C27.7955 10.3941 29.2172 11.8121 30.2085 13.5198L25.3381 16.3397C24.8428 15.4845 24.1317 14.7744 23.2759 14.2801C22.4202 13.7858 21.4497 13.5247 20.4615 13.5229C17.3581 13.5229 14.8343 16.0483 14.8343 19.1517C14.8343 22.255 17.3581 24.7804 20.4615 24.7804C21.4494 24.7783 22.4196 24.5173 23.2753 24.0233C24.1309 23.5294 24.8422 22.8198 25.3381 21.9653L30.21 24.7836C29.2184 26.4913 27.7964 27.9092 26.0859 28.896C24.3754 29.8828 22.4362 30.404 20.4615 30.4076Z" fill="#00599C"/>
</g>
<defs>
<clipPath id="clip0">
<rect width="38" height="38" fill="white"/>
</clipPath>
</defs>
</svg>
